<svg width="40" height="40" viewBox="0 0 40 40" fill="none" xmlns="http://www.w3.org/2000/svg">
<path d="M3.37504 10.9708C3.48982 10.3481 3.81887 9.78511 4.30515 9.3795C4.79143 8.97388 5.4043 8.75118 6.03754 8.75H34.3042C34.9375 8.75118 35.5503 8.97388 36.0366 9.3795C36.5229 9.78511 36.8519 10.3481 36.9667 10.9708L24.5709 19.6917C24.4411 19.7207 24.3242 19.7908 24.2375 19.8917C24.2162 19.9141 24.198 19.9394 24.1834 19.9667L21.2 22.05C20.8986 22.2616 20.5392 22.3751 20.1709 22.3751C19.8026 22.3751 19.4432 22.2616 19.1417 22.05L16.1584 19.9667C16.1438 19.9394 16.1255 19.9141 16.1042 19.8917C16.0176 19.7908 15.9006 19.7207 15.7709 19.6917L3.37504 10.9708ZM25.7584 20.3833L33.0375 26.7125C33.0989 26.7672 33.1489 26.8334 33.1846 26.9074C33.2203 26.9814 33.2411 27.0618 33.2457 27.1438C33.2504 27.2258 33.2388 27.308 33.2117 27.3856C33.1845 27.4631 33.1423 27.5346 33.0875 27.5958C33.0291 27.6632 32.9567 27.7171 32.8754 27.7538C32.7942 27.7904 32.7059 27.8091 32.6167 27.8083C32.4642 27.8109 32.316 27.7575 32.2 27.6583L24.7 21.125L21.9125 23.0875C21.4008 23.4455 20.7913 23.6375 20.1667 23.6375C19.5421 23.6375 18.9327 23.4455 18.4209 23.0875L15.6375 21.125L8.13754 27.65C8.01267 27.7605 7.84901 27.8169 7.68257 27.8067C7.51613 27.7966 7.36055 27.7207 7.25004 27.5958C7.13953 27.471 7.08316 27.3073 7.09332 27.1409C7.10348 26.9744 7.17934 26.8188 7.30421 26.7083L14.5834 20.3833L3.33337 12.4667V28.375C3.33448 29.093 3.62017 29.7812 4.12784 30.2889C4.63552 30.7965 5.32375 31.0822 6.04171 31.0833H34.3042C35.0222 31.0822 35.7104 30.7965 36.2181 30.2889C36.7257 29.7812 37.0114 29.093 37.0125 28.375V12.4667L25.7584 20.3833Z" fill="white"/>
</svg>
