<svg width="40" height="40" viewBox="0 0 40 40" fill="none" xmlns="http://www.w3.org/2000/svg">
<path d="M20.088 36.8264C20.9802 36.8264 21.8038 36.4237 22.3529 35.7191C26.3289 30.59 33 21.2103 33 15.9896C33 8.87019 27.2074 3.07764 20.088 3.07764C12.9686 3.07764 7.17599 8.87019 7.17599 15.9896C7.17599 21.2103 13.847 30.5946 17.8277 35.7191C18.3722 36.4237 19.1958 36.8264 20.088 36.8264ZM12.9319 15.9896C12.9319 12.0364 16.1348 8.83359 20.088 8.83359C24.0412 8.83359 27.244 12.0364 27.244 15.9896C27.244 19.9429 24.0412 23.1457 20.088 23.1457C16.1348 23.1457 12.9319 19.9383 12.9319 15.9896Z" fill="white"/>
</svg>
