<svg width="40" height="40" viewBox="0 0 40 40" fill="none" xmlns="http://www.w3.org/2000/svg">
<path d="M32.8831 32.9866L28.1508 27.342C27.0093 26.1097 25.6939 25.6112 24.1139 26.4235L22.5339 27.2697C21.6554 27.7189 21.6493 27.9774 21.3247 28.4804C20.477 29.8004 19.3385 29.5004 18.8001 28.9297C16.5231 26.5035 13.6862 21.0497 13.6601 20.9989C12.7093 19.1481 12.1293 17.2097 11.7893 15.2866C11.6601 14.5128 12.057 13.4174 13.6231 13.4943C14.2231 13.5251 14.4354 13.6697 15.3139 13.2174L16.9216 12.422C18.5016 11.6128 18.8647 10.2543 18.5262 8.60814L16.697 1.47583C16.0293 0.152754 14.4154 -0.379553 13.0939 0.288139L9.66468 2.01429C9.07083 2.31429 8.51699 2.93122 8.15852 3.63583C5.26468 8.5266 5.43391 16.2328 9.1216 23.4097C9.25699 23.6774 14.9062 37.4281 26.1554 38.6681C26.937 38.7866 27.757 38.6989 28.3478 38.3881L31.7508 36.6066C33.0616 35.9204 33.5693 34.3004 32.8831 32.9866Z" fill="white"/>
</svg>
